<svg xmlns="http://www.w3.org/2000/svg" version="1.1" xmlns:xlink="http://www.w3.org/1999/xlink" xmlns:svgjs="http://svgjs.dev/svgjs" width="1500" height="1500" viewBox="0 0 1500 1500"><g transform="matrix(1,0,0,1,-0.21332335329316265,-0.21332335329350371)"><svg viewBox="0 0 334 334" data-background-color="#ffffff" preserveAspectRatio="xMidYMid meet" height="1500" width="1500" xmlns="http://www.w3.org/2000/svg" xmlns:xlink="http://www.w3.org/1999/xlink"><g id="tight-bounds" transform="matrix(1,0,0,1,0.04749999999998522,0.04750000000001364)"><svg viewBox="0 0 333.90454557049503 333.90454557049503" height="333.90454557049503" width="333.90454557049503"><g><svg></svg></g><g><svg viewBox="0 0 333.90454557049503 333.90454557049503" height="333.90454557049503" width="333.90454557049503"><g><path d="M0 166.952c0-92.205 74.747-166.952 166.952-166.952 92.205 0 166.952 74.747 166.953 166.952 0 92.205-74.747 166.952-166.953 166.953-92.205 0-166.952-74.747-166.952-166.953zM166.952 326.894c88.333 0 159.942-71.608 159.942-159.942 0-88.333-71.608-159.942-159.942-159.941-88.333 0-159.942 71.608-159.941 159.941 0 88.333 71.608 159.942 159.941 159.942z" data-fill-palette-color="tertiary" fill="#ff8811" stroke="transparent"></path><ellipse rx="160.27418187383762" ry="160.27418187383762" cx="166.95227278524752" cy="166.95227278524752" fill="#ff8811" stroke="transparent" stroke-width="0" fill-opacity="1" data-fill-palette-color="tertiary"></ellipse></g><g transform="matrix(1,0,0,1,66.99532572164996,71.17305217166896)"><svg viewBox="0 0 199.9138941271951 191.55844122715712" height="191.55844122715712" width="199.9138941271951"><g><svg viewBox="0 0 199.9138941271951 191.55844122715712" height="191.55844122715712" width="199.9138941271951"><g><svg viewBox="0 0 213.15844122715714 204.24942905621796" height="191.55844122715712" width="199.9138941271951"><g transform="matrix(1,0,0,1,0,121.36101148029641)"><svg viewBox="0 0 213.15844122715714 82.88841757592155" height="82.88841757592155" width="213.15844122715714"><g id="textblocktransform"><svg viewBox="0 0 213.15844122715714 82.88841757592155" height="82.88841757592155" width="213.15844122715714" id="textblock"><g><svg viewBox="0 0 213.15844122715714 82.88841757592155" height="82.88841757592155" width="213.15844122715714"><g transform="matrix(1,0,0,1,0,0)"><svg width="213.15844122715714" viewBox="1.25 -33.79 88.52 34.42" height="82.88841757592155" data-palette-color="#ffffff"><path d="M1.25-16.28L1.25-16.28Q1.25-20.46 2.22-23.72 3.2-26.98 5.1-29.21 7.01-31.45 9.79-32.62 12.57-33.79 16.19-33.79L16.19-33.79Q17.63-33.79 19.02-33.58 20.41-33.37 21.56-33.11L21.56-33.11Q22.88-32.81 24.1-32.45L24.1-32.45Q24.02-31.81 23.88-31.1L23.88-31.1Q23.75-30.47 23.5-29.68 23.24-28.88 22.83-28.03L22.83-28.03Q21.92-28.39 20.85-28.66L20.85-28.66Q19.92-28.91 18.73-29.1 17.53-29.3 16.19-29.3L16.19-29.3Q14.01-29.3 12.27-28.42 10.52-27.54 9.29-25.87 8.06-24.19 7.4-21.78 6.74-19.36 6.74-16.28L6.74-16.28Q6.74-13.23 7.4-10.91 8.06-8.59 9.29-7.03 10.52-5.47 12.27-4.68 14.01-3.88 16.19-3.88L16.19-3.88Q17.55-3.88 18.8-4.08 20.04-4.27 21-4.52L21-4.52Q22.12-4.79 23.07-5.18L23.07-5.18Q23.34-4.61 23.54-3.93L23.54-3.93Q23.71-3.34 23.84-2.53 23.97-1.71 23.93-0.68L23.93-0.68Q22.78-0.29 21.48-0.02L21.48-0.02Q20.39 0.24 19.01 0.44 17.63 0.63 16.19 0.63L16.19 0.63Q8.76 0.63 5-3.63 1.25-7.89 1.25-16.28ZM29.95 0L29.95-33.15 41.57-33.15Q44.02-33.15 45.9-32.48 47.78-31.81 49.03-30.58 50.29-29.35 50.94-27.6 51.58-25.85 51.58-23.71L51.58-23.71Q51.58-22.14 51.19-20.74 50.8-19.34 50.01-18.15 49.22-16.97 47.98-16.04 46.75-15.11 45.07-14.53L45.07-14.53Q45.99-12.74 47.04-10.91 48.09-9.08 49.16-7.25 50.22-5.42 51.27-3.59 52.32-1.76 53.24 0L53.24 0 47.29 0 40.04-13.7 39.69-13.7Q38.99-13.7 38.22-13.76 37.45-13.82 36.79-13.89L36.79-13.89Q36.01-13.99 35.28-14.11L35.28-14.11 35.28 0 29.95 0ZM35.28-28.91L35.28-18.04Q35.5-18.02 36-17.98 36.5-17.94 37.12-17.92 37.74-17.9 38.46-17.88 39.18-17.87 39.84-17.87L39.84-17.87Q42.94-17.87 44.47-19.27 45.99-20.68 45.99-23.61L45.99-23.61Q45.99-26.17 44.61-27.54 43.23-28.91 40.7-28.91L40.7-28.91 35.28-28.91ZM56.56 0L58.3-33.15 66.62-33.15 71.41-16.6 73.19-9.47 74.97-16.6 79.63-33.15 87.96-33.15 89.77 0 84.47 0 83.47-23.97 83.59-30.4Q83.03-28.71 82.43-26.68 81.83-24.66 81.21-22.47 80.59-20.29 79.96-18.03 79.34-15.77 78.72-13.59 78.1-11.4 77.5-9.39 76.9-7.37 76.34-5.71L76.34-5.71 70.06-5.71 62.59-30.47 62.69-23.88 61.86 0 56.56 0Z" opacity="1" transform="matrix(1,0,0,1,0,0)" fill="#ffffff" class="wordmark-text-0" data-fill-palette-color="quaternary" id="text-0"></path></svg></g></svg></g></svg></g></svg></g><g transform="matrix(1,0,0,1,40.71326227438702,0)"><svg viewBox="0 0 131.7319166783831 101.79304541264315" height="101.79304541264315" width="131.7319166783831"><g><svg xmlns="http://www.w3.org/2000/svg" xmlns:xlink="http://www.w3.org/1999/xlink" version="1.1" x="0" y="0" viewBox="5.443 15.316 89.501 69.16" enable-background="new 0 0 100 100" xml:space="preserve" height="101.79304541264315" width="131.7319166783831" class="icon-icon-0" data-fill-palette-color="quaternary" id="icon-0"><path d="M87.62 33.304V36.206C90.127 36.658 92.043 38.847 92.043 41.486L92.037 80.795 83.038 71.793H38.143C35.518 71.793 33.334 69.9 32.867 67.413H29.965C30.463 71.504 33.918 74.695 38.143 74.695H81.837L90.24 83.098C91.181 84.039 91.992 84.476 92.797 84.476 94.137 84.476 94.891 83.308 94.944 82.089V41.486C94.944 37.247 91.731 33.782 87.62 33.304" fill="#ffffff" data-fill-palette-color="quaternary"></path><path d="M76.014 64.512A8.704 8.704 0 0 0 84.718 55.807V24.021A8.704 8.704 0 0 0 76.014 15.316H14.148A8.705 8.705 0 0 0 5.443 24.021V75.789S5.564 78.486 8.284 75.766L19.54 64.512z" fill="#ffffff" data-fill-palette-color="quaternary"></path></svg></g></svg></g><g></g></svg></g></svg></g></svg></g></svg></g><defs></defs></svg><rect width="333.90454557049503" height="333.90454557049503" fill="none" stroke="none" visibility="hidden"></rect></g></svg></g></svg>